<svg id="Layer_1" data-name="Layer 1" xmlns="http://www.w3.org/2000/svg" viewBox="0 0 200 150"><defs><style>.cls-1{fill:#fffffd;}.cls-2{fill:#030202;}.cls-3{fill:#f4de7f;}.cls-4{fill:#62ac34;}.cls-5{fill:#fdfdfd;}.cls-6{fill:#c0c9d3;}.cls-7{fill:#11120d;}.cls-8{fill:#fad2b1;}</style></defs><title>purp icons</title><path d="M98.76,4.47h24.57a7.53,7.53,0,0,1,7.79,7.84c0,5.07-.4,10.18.11,15.2s.16,10.3.32,15.44c.06,1.94-.39,3.89-.4,5.83,0,1.75.52,3.52.4,5.25-1,13.29-.25,26.59-.4,39.88s0,26.6,0,39.9c0,5.13-3.08,8.22-8.22,8.22H74a7.52,7.52,0,0,1-7.88-7.87q0-60.84,0-121.69c0-4.86,3.21-8,8.08-8H98.76ZM82.22,7.32c-.19,0-.31-.08-.42-.09H74.55c-3.89,0-5.7,1.84-5.7,5.75V121.79c0,4.14,0,8.27,0,12.41a4.79,4.79,0,0,0,5.06,5.08H123.3a4.78,4.78,0,0,0,5-5.09V12.39c0-3.18-2-5.15-5.21-5.17-2.18,0-4.37.06-6.55,0-1.14-.05-1.64.27-1.84,1.45-.33,2-1.3,2.67-3.33,2.67H85.8a2.83,2.83,0,0,1-3.22-2.55C82.46,8.27,82.34,7.78,82.22,7.32ZM99.6,8.2h0c-.81,0-1.63,0-2.44,0-.22,0-.42.32-.62.49.2.14.4.39.61.39,1.62,0,3.25,0,4.87,0,.2,0,.38-.28.57-.43-.18-.16-.36-.43-.56-.44C101.23,8.17,100.41,8.2,99.6,8.2Zm9.66-1c-.47.66-1,1.08-.93,1.38a1.52,1.52,0,0,0,1,1c.25.05.9-.57.91-.9S109.73,7.89,109.26,7.22ZM87.61,10.13c.48-.74.94-1.15.92-1.54a1.27,1.27,0,0,0-.92-.87,1.32,1.32,0,0,0-.93.87C86.66,9,87.13,9.39,87.61,10.13Z"/><path class="cls-1" d="M82.22,7.32c.12.46.24.95.36,1.43A2.83,2.83,0,0,0,85.8,11.3h25.62c2,0,3-.68,3.33-2.67.2-1.18.7-1.5,1.84-1.45,2.18.09,4.37,0,6.55,0,3.21,0,5.21,2,5.21,5.17v121.8a4.78,4.78,0,0,1-5,5.09H73.92a4.79,4.79,0,0,1-5.06-5.08c0-4.14,0-8.27,0-12.41V13c0-3.91,1.81-5.75,5.7-5.75H81.8C81.91,7.24,82,7.28,82.22,7.32Z"/><path class="cls-1" d="M99.6,8.2c.81,0,1.63,0,2.43,0,.2,0,.38.28.56.44-.19.15-.37.42-.57.43-1.62,0-3.25,0-4.87,0-.21,0-.41-.25-.61-.39.2-.17.4-.47.62-.49.81-.06,1.63,0,2.44,0Z"/><path class="cls-1" d="M109.26,7.22c.47.67,1,1.07,1,1.46s-.66,1-.91.9a1.52,1.52,0,0,1-1-1C108.26,8.3,108.79,7.88,109.26,7.22Z"/><path class="cls-1" d="M87.61,10.13c-.48-.74-1-1.15-.93-1.54a1.32,1.32,0,0,1,.93-.87,1.27,1.27,0,0,1,.92.87C88.55,9,88.09,9.39,87.61,10.13Z"/><path class="cls-2" d="M101.71,68.75a.89.89,0,0,1,1.39-.08,6.13,6.13,0,0,1,2,2.41.4.4,0,0,0,.52.27,6.35,6.35,0,0,1,7.07,4.19.5.5,0,0,0,.58.42c1.81,0,3.61,0,5.41,0a2.9,2.9,0,0,1,1.67,5.24c-.22.15-.48.23-.7.38s-.47,0-.48.29a7,7,0,0,0,0,1.21c0,.13.25.07.38.07h3.24a2.86,2.86,0,0,1,3.06,2.29s0,0,.08,0v1.28c-.08,0-.1.07-.12.14A3,3,0,0,1,122.75,89c-1,0-2,0-3.07,0-.42,0-.51.12-.51.52q0,5.49,0,11a4.25,4.25,0,0,1-2.61,4.12,9.69,9.69,0,0,1-1.08.34H82c0-.16-.2-.12-.31-.15a4.31,4.31,0,0,1-3.17-4.31c0-3.64,0-7.28,0-10.91,0-.48-.13-.58-.59-.57q-1.67.06-3.33,0a2.9,2.9,0,0,1-.54-5.75,14.9,14.9,0,0,1,2.22-.06c.62,0,1.24,0,1.85,0,.32,0,.42-.1.37-.39v-.11a1,1,0,0,0-.72-1.23,2.74,2.74,0,0,1-1.61-3.17A2.89,2.89,0,0,1,79,76q3.15,0,6.3,0a.65.65,0,0,0,.77-.52,6.36,6.36,0,0,1,7-4.1c.34.06.45,0,.59-.31a6.3,6.3,0,0,1,5.5-3.56c.68,0,.89.14,1,.83a.89.89,0,0,1-.93.76,4.79,4.79,0,0,0-4.48,3.37c-.24.7-.56.87-1.3.64A4.64,4.64,0,0,0,90.9,73a4.74,4.74,0,0,0-3.34,2.92h23.56a4.76,4.76,0,0,0-5.8-2.86c-.86.25-1.1.12-1.41-.75A4.58,4.58,0,0,0,102.16,70,1,1,0,0,1,101.71,68.75Zm-16,12.15c-.12.66-.35.86-1,.86H81.09c-1.07,0-1.07,0-1,1.08,0,.19,0,.38,0,.58q0,8.4,0,16.8a2.75,2.75,0,0,0,3.06,3.08h31.37a2.76,2.76,0,0,0,3.07-3.08q0-8.4,0-16.8c0-.2,0-.39,0-.58.09-1.08.09-1.08-1-1.08H88.48c-.83,0-1-.14-1.21-.86.16-.66.64-.74,1.22-.74h30.16a1.28,1.28,0,0,0,1.27-1.57c-.24-.78-.63-1-1.6-1H79a1.3,1.3,0,1,0,.14,2.6q2.77,0,5.55,0A.87.87,0,0,1,85.71,80.9Zm-9.36,3.86H74.71A1.31,1.31,0,0,0,73.31,86a1.29,1.29,0,0,0,1.33,1.29c1.17,0,2.33,0,3.5,0,.26,0,.33-.09.32-.34,0-.62,0-1.23,0-1.85,0-.29-.07-.41-.38-.39C77.52,84.78,76.93,84.76,76.35,84.76Zm45,0h-1.86c-.24,0-.34.06-.33.32,0,.65,0,1.31,0,2,0,.24.08.3.31.3,1.2,0,2.4,0,3.6,0A1.26,1.26,0,0,0,124.36,86,1.29,1.29,0,0,0,123,84.77C122.48,84.75,121.93,84.76,121.39,84.76Z"/><path class="cls-2" d="M85.38,56.44a.89.89,0,0,1-1.16.54c-1.49-.38-3-.73-4.47-1.1-.64-.16-.84-.54-.66-1.19a4.68,4.68,0,0,1,5.58-3.28c3.17.75,6.33,1.54,9.5,2.33.44.11.62,0,.69-.42A8.91,8.91,0,0,1,95.19,52a1.82,1.82,0,0,1,2.26-1.31c2.22.53,4.45,1.07,6.67,1.63a1.83,1.83,0,0,1,1.4,2.3,8.91,8.91,0,0,1-.33,1.33c-.15.43,0,.52.39.6,3.17.77,6.34,1.54,9.5,2.33a4.69,4.69,0,0,1,3.5,5.4c-.15.79-.49,1-1.27.83l-7.23-1.78L87.75,57.83c-.7-.17-.83-.33-.87-1,.38-.59.58-.66,1.28-.49L116,63.13c.32.08.78.39,1,.11s0-.74-.24-1.07a3.07,3.07,0,0,0-2.26-1.81l-6.31-1.54L84.42,53a3,3,0,0,0-2.69.55,2.23,2.23,0,0,0-.84,1l3.66.9C85.2,55.57,85.34,55.76,85.38,56.44ZM104,54.12c0-.18-.18-.23-.38-.28l-6.41-1.57c-.3-.08-.42,0-.48.3-.1.46-.21.93-.34,1.38-.06.2,0,.29.18.34l6.71,1.64c.17,0,.27,0,.31-.14C103.7,55.28,103.82,54.76,104,54.12Z"/><path class="cls-3" d="M101.71,68.75a1,1,0,0,0,.45,1.22,4.58,4.58,0,0,1,1.75,2.33c.31.87.55,1,1.41.75a4.76,4.76,0,0,1,5.8,2.86H87.56A4.74,4.74,0,0,1,90.9,73a4.64,4.64,0,0,1,2.56.08c.74.23,1.06.06,1.3-.64a4.79,4.79,0,0,1,4.48-3.37.89.89,0,0,0,.93-.76A5.07,5.07,0,0,1,101.71,68.75Z"/><path class="cls-4" d="M116.76,62.17c.21.33.43.8.24,1.07s-.64,0-1-.11L88.16,56.3c-.7-.17-.9-.1-1.28.49l-1.5-.35c0-.68-.18-.87-.83-1l-3.66-.9a2.23,2.23,0,0,1,.84-1c.07.12.2.13.32.16l8.86,2.17,11.61,2.84L113,61.29C114.26,61.59,115.49,62,116.76,62.17Z"/><path class="cls-2" d="M84.65,65.53a3.07,3.07,0,1,1-3.13,3A3.07,3.07,0,0,1,84.65,65.53Zm-1.52,3.06a1.46,1.46,0,1,0,1.47-1.46A1.42,1.42,0,0,0,83.13,68.59Z"/><path class="cls-2" d="M92.6,66.53a3.07,3.07,0,0,1-3.1-3,3.08,3.08,0,1,1,6.15,0A3.07,3.07,0,0,1,92.6,66.53Zm1.45-3.07a1.48,1.48,0,0,0-3,0,1.48,1.48,0,0,0,3,0Z"/><path class="cls-2" d="M114.31,72.9a3,3,0,0,1-3.08-3,3.07,3.07,0,1,1,3.08,3Zm0-1.61a1.47,1.47,0,0,0,1.48-1.48,1.49,1.49,0,0,0-1.46-1.45,1.47,1.47,0,1,0,0,2.93Z"/><path class="cls-4" d="M117.56,82.85c0,.19,0,.38,0,.58q0,8.4,0,16.8a2.76,2.76,0,0,1-3.07,3.08H83.15a2.75,2.75,0,0,1-3.06-3.08q0-8.4,0-16.8c0-.2,0-.39,0-.58Z"/><path class="cls-5" d="M77.75,78.59a1.27,1.27,0,0,1,1.28-1h39.29c1,0,1.36.26,1.6,1a4,4,0,0,1-2,.44q-19,0-38.11,0A4,4,0,0,1,77.75,78.59Z"/><path class="cls-6" d="M77.75,78.59a4,4,0,0,0,2,.44q19.05,0,38.11,0a4,4,0,0,0,2-.44,1.28,1.28,0,0,1-1.27,1.57H88.49c-.58,0-1.06.08-1.22.74H85.71a.87.87,0,0,0-1-.74q-2.77,0-5.55,0A1.28,1.28,0,0,1,77.75,78.59Z"/><path class="cls-7" d="M85.71,80.9h1.56c.18.72.38.86,1.21.86h28.09c1.08,0,1.08,0,1,1.08H80.11c-.09-1.08-.09-1.08,1-1.08h3.59C85.36,81.76,85.59,81.56,85.71,80.9Z"/><path class="cls-6" d="M76.35,84.76c.58,0,1.17,0,1.75,0,.31,0,.39.1.38.39,0,.62,0,1.23,0,1.85,0,.25-.06.35-.32.34-1.17,0-2.33,0-3.5,0A1.29,1.29,0,0,1,73.31,86a1.31,1.31,0,0,1,1.4-1.28Z"/><path class="cls-6" d="M121.39,84.76c.54,0,1.09,0,1.64,0A1.29,1.29,0,0,1,124.36,86a1.26,1.26,0,0,1-1.24,1.32c-1.2,0-2.4,0-3.6,0-.23,0-.32-.06-.31-.3,0-.65,0-1.31,0-2,0-.26.09-.33.33-.32Z"/><path class="cls-7" d="M116.76,62.17c-1.27-.21-2.5-.58-3.75-.88l-10.49-2.58L90.91,55.87,82.05,53.7c-.12,0-.25,0-.32-.16A3,3,0,0,1,84.42,53l23.77,5.83,6.31,1.54A3.07,3.07,0,0,1,116.76,62.17Z"/><path class="cls-6" d="M104,54.12c-.16.64-.28,1.16-.41,1.67,0,.19-.14.18-.31.14l-6.71-1.64c-.21,0-.24-.14-.18-.34.13-.45.24-.92.34-1.38.06-.29.18-.38.48-.3l6.41,1.57C103.8,53.89,104,53.94,104,54.12Z"/><path class="cls-3" d="M83.13,68.59a1.42,1.42,0,0,1,1.47-1.46,1.44,1.44,0,0,1,1.45,1.43,1.46,1.46,0,1,1-2.92,0Z"/><path class="cls-3" d="M94.05,63.46a1.48,1.48,0,0,1-3,0,1.48,1.48,0,0,1,3,0Z"/><path class="cls-3" d="M114.29,71.29a1.47,1.47,0,1,1,0-2.93,1.49,1.49,0,0,1,1.46,1.45A1.47,1.47,0,0,1,114.29,71.29Z"/><path d="M108.86,135.29a9.4,9.4,0,0,0-1.6-4.85c-2.22-3.54-4.48-7-6.74-10.56-.91-1.4-1.86-2.78-2.74-4.2a5.36,5.36,0,0,1-.72-3.9c.33-2,3.16-3,4.73-2.07a11.92,11.92,0,0,1,2.21,1.8c.76.77,1.4,1.64,2.2,2.6,0-.89,0-1.62,0-2.34V96c0-2.53,1.35-3.94,3.92-4.07a4.56,4.56,0,0,1,4.47,2.74,1.63,1.63,0,0,1,.1.66v6c0,.14,0,.29,0,.44,3.27-.58,4.94.39,6.09,3.14a4.79,4.79,0,0,1,3.83-.52,4,4,0,0,1,2.39,2.84,20.1,20.1,0,0,1,2.24-.61,3.39,3.39,0,0,1,3.71,2,15,15,0,0,1,1.51,6.14c.35,3.82-.55,7.45-1.67,11-1,3.09-2,6.14-3.06,9.21,0,.14-.09.28-.14.44.28.13.56.24.82.38a2.59,2.59,0,0,1,1.34,2.28c0,1.62,0,3.24,0,4.85a2.73,2.73,0,0,1-2.93,2.65c-2.43,0-4.85,0-7.28,0H109.13a2.8,2.8,0,0,1-3.12-3.05c0-1.24,0-2.48,0-3.73C106,136.58,106.7,135.73,108.86,135.29Zm1.46,0,.29,0h17.06a.51.51,0,0,0,.56-.42c1.2-3.66,2.45-7.31,3.61-11A23.53,23.53,0,0,0,133,114a12.89,12.89,0,0,0-1.2-4.61,2.37,2.37,0,0,0-3.31-1.23,1.68,1.68,0,0,0-1.13,1.65v4.8h-1.42c0-1.67,0-3.29,0-4.9a9.31,9.31,0,0,0-.33-2.22c-.46-1.63-1.38-2.18-3-1.8-.92.21-1.53.52-1.46,1.72s0,2.52,0,3.78v1.52H119.7V112c0-1.73.08-3.47,0-5.2-.15-2.41-1.39-4.15-4.12-3.72-.7.12-.87.29-.87,1v8.72h-1.41c0-.22,0-.4,0-.59,0-5.46,0-10.92,0-16.38a2,2,0,0,0-.48-1.34,3,3,0,0,0-1.76-1,3.56,3.56,0,0,0-2.83.67c-.71.53-.55,1.27-.55,2q0,10.59,0,21.19V118c-.2-.22-.31-.32-.4-.43-1.4-1.67-2.77-3.37-4.2-5a7.09,7.09,0,0,0-1.72-1.52,1.94,1.94,0,0,0-2.93,1.75,4.51,4.51,0,0,0,.89,2.57q3.87,5.92,7.73,11.87C108.6,129.73,110.21,132.2,110.32,135.32Zm8.59,8.77h9.89c1.08,0,1.55-.47,1.55-1.55,0-1.37,0-2.75,0-4.12,0-1.14-.46-1.62-1.6-1.62q-9.88,0-19.77,0c-1.06,0-1.53.49-1.54,1.57v4c0,1.28.42,1.71,1.69,1.71Z"/><path class="cls-8" d="M110.32,135.32c-.11-3.12-1.72-5.59-3.31-8.06q-3.86-5.94-7.73-11.87a4.51,4.51,0,0,1-.89-2.57,1.94,1.94,0,0,1,2.93-1.75,7.09,7.09,0,0,1,1.72,1.52c1.43,1.64,2.8,3.34,4.2,5,.09.11.2.21.4.43v-.84q0-10.59,0-21.19c0-.69-.16-1.43.55-2a3.56,3.56,0,0,1,2.83-.67,3,3,0,0,1,1.76,1,2,2,0,0,1,.48,1.34c0,5.46,0,10.92,0,16.38,0,.19,0,.37,0,.59h1.41V104c0-.68.17-.85.87-1,2.73-.43,4,1.31,4.12,3.72.1,1.73,0,3.47,0,5.2v.76h1.44v-1.52c0-1.26.06-2.53,0-3.78s.54-1.51,1.46-1.72c1.63-.38,2.55.17,3,1.8a9.31,9.31,0,0,1,.33,2.22c0,1.61,0,3.23,0,4.9h1.42v-4.8a1.68,1.68,0,0,1,1.13-1.65,2.37,2.37,0,0,1,3.31,1.23A12.89,12.89,0,0,1,133,114a23.53,23.53,0,0,1-1.16,10c-1.16,3.68-2.41,7.33-3.61,11a.51.51,0,0,1-.56.42H110.61Z"/><path class="cls-8" d="M118.91,144.09h-9.77c-1.27,0-1.69-.43-1.69-1.71v-4c0-1.08.48-1.57,1.54-1.57q9.89,0,19.77,0c1.14,0,1.6.48,1.6,1.62,0,1.37,0,2.75,0,4.12,0,1.08-.47,1.54-1.55,1.55Z"/></svg>