<svg id="Layer_1" data-name="Layer 1" xmlns="http://www.w3.org/2000/svg" viewBox="0 0 200 150"><defs><style>.cls-1{fill:#fad2b1;}.cls-2{fill:#62ac34;}.cls-3{fill:#11120d;}.cls-4{fill:#030202;}.cls-5{fill:#fdfdfd;}.cls-6{fill:#c0c9d3;}</style></defs><title>purp icons</title><path class="cls-1" d="M123.23,41.74c-1.81-1.69-3.62-3.36-5.42-5.1a1.51,1.51,0,0,1-.2-1c0-1.51,0-3,0-4.55a1.48,1.48,0,0,0-3-.05c0,.51,0,1,0,1.49q0,9.78,0,19.57a2.62,2.62,0,1,1-5.21,0c0-2.47,0-4.93,0-7.39,0-1.24-.53-1.87-1.49-1.87s-1.49.62-1.49,1.86c0,2.46,0,4.92,0,7.39,0,1.85-1.06,3.08-2.62,3.07s-2.57-1.23-2.57-3.11c0-2.46.05-4.93,0-7.39A2.3,2.3,0,0,0,100.3,43c-1-.63-2.07.19-2.09,1.51,0,2.54,0,5.09,0,7.62A2.64,2.64,0,0,1,96.09,55,2.6,2.6,0,0,1,93,52.34c0-2.62,0-5.23,0-7.86,0-1.27-1.16-2.09-2.13-1.44A2.18,2.18,0,0,0,90,44.61c-.09,2,0,4-.05,5.92a2.61,2.61,0,1,1-5.19,0V27a19.28,19.28,0,0,1,1.5-7.19A24.9,24.9,0,0,0,88,14.92c.21-1.24.36-2.49.49-3.75h25.86a14.58,14.58,0,0,0,4.15,8.29,14,14,0,0,1,4.31,8.46C123.21,32.5,123.12,37.14,123.23,41.74Z"/><path d="M68.45,71.44V69.57c0-6.14,0-12.28,0-18.43a2.93,2.93,0,0,1,.9-2.22Q75.22,43,81,37a2.78,2.78,0,0,0,.69-1.67c.07-2.8,0-5.61,0-8.42a20.06,20.06,0,0,1,1.75-8.4A26.68,26.68,0,0,0,85.84,7.1c0-.3,0-.61,0-.91,0-1.12.58-1.75,1.51-1.73A1.44,1.44,0,0,1,88.8,6.14c-.22,2.86-.41,5.74-.89,8.56a24.37,24.37,0,0,1-1.67,4.94,19.08,19.08,0,0,0-1.51,7.18V50.37a2.61,2.61,0,1,0,5.2,0c0-2-.06-4,0-5.92a2.25,2.25,0,0,1,.82-1.57c1-.64,2.11.17,2.13,1.45,0,2.62,0,5.23,0,7.85A2.58,2.58,0,0,0,96,54.78,2.64,2.64,0,0,0,98.13,52c0-2.54,0-5.09,0-7.63,0-1.31,1.1-2.13,2.09-1.5a2.34,2.34,0,0,1,.87,1.65c.09,2.46,0,4.93,0,7.39,0,1.88,1,3.09,2.57,3.1s2.62-1.21,2.63-3.06c0-2.46,0-4.93,0-7.39,0-1.23.54-1.86,1.5-1.86s1.49.64,1.49,1.87c0,2.46,0,4.93,0,7.39,0,1.78,1.07,2.93,2.64,2.9a2.6,2.6,0,0,0,2.56-2.87c0-6.52,0-13,0-19.57,0-.49,0-1,0-1.48a1.48,1.48,0,0,1,3,0c0,1.52,0,3,0,4.55a1.53,1.53,0,0,0,.2,1c1.79,1.73,3.62,3.42,5.43,5.11-.1.11,0,.06,0,0-.11-4.62,0-9.26-.42-13.85a14,14,0,0,0-4.33-8.46,14.71,14.71,0,0,1-4.3-10.11c0-1-.17-2-.21-3.06a1.48,1.48,0,1,1,3-.17c.13,1.43.24,2.87.37,4.3a10.26,10.26,0,0,0,2.88,6.41,21,21,0,0,1,6.08,15.67c-.08,4,0,8,0,11.94a2.48,2.48,0,0,0,.59,1.48c1,1.11,2,2.16,3.09,3.18a2.75,2.75,0,0,1,.91,2.21c0,6.33,0,12.66,0,19v1.34h15c1.64,0,2.1.46,2.1,2.1q0,35,0,70c0,1.56-.48,2-2.05,2H54.15c-1.57,0-2-.46-2-2q0-35,0-70c0-1.64.46-2.1,2.09-2.1H68.45Zm-13.28,71h89.62V74.54H55.17ZM84.8,55.65V71.34h29.66V57.56a16.27,16.27,0,0,1-3.53.11,16.28,16.28,0,0,1-3.23-1.34,5.63,5.63,0,0,1-4,1.63,6.16,6.16,0,0,1-4.13-1.75c-3.41,2.48-5.81,2.2-9-1A6,6,0,0,1,84.8,55.65ZM81.64,71.37V41.46c-3,2.81-6.24,5.82-9.42,8.9a2.74,2.74,0,0,0-.71,1.76c-.05,6,0,12.06,0,18.09,0,.37,0,.74.06,1.16Zm36-30v30h10.19V70c0-5.57-.06-11.14,0-16.71a4.59,4.59,0,0,0-1.55-3.86C123.27,46.77,120.36,44,117.6,41.37Z"/><path class="cls-2" d="M81.64,71.37H71.54c0-.42-.06-.79-.06-1.16,0-6,0-12.06,0-18.09a2.74,2.74,0,0,1,.71-1.76c3.18-3.08,6.43-6.09,9.42-8.9Z"/><path class="cls-2" d="M117.6,41.37c2.76,2.59,5.67,5.4,8.68,8.1a4.59,4.59,0,0,1,1.55,3.86c-.1,5.57,0,11.14,0,16.71v1.31H117.6Z"/><rect class="cls-3" x="55.17" y="74.54" width="89.62" height="67.92"/><path class="cls-4" d="M134.08,107.31a3.6,3.6,0,0,0-3.86-2.88h-4.08c-.17,0-.46.08-.48-.08a8.67,8.67,0,0,1,0-1.53c0-.39.41-.24.61-.37s.61-.29.87-.48A3.64,3.64,0,0,0,125,95.37c-2.27,0-4.54,0-6.81,0a.81.81,0,0,1-.45-.1,3.11,3.11,0,0,1-1.09.2,3.06,3.06,0,0,1-1.25-.25.41.41,0,0,1,0,.09H86.05a3.15,3.15,0,0,1-.84.12,3,3,0,0,1-1-.18,2.63,2.63,0,0,1-.49.06c-.11,0-.2,0-.31,0a1.11,1.11,0,0,1-.48.09h-.1a2.71,2.71,0,0,1-1.1,0q-3.37,0-6.75,0a3.64,3.64,0,0,0-3.53,2.89,3.45,3.45,0,0,0,2,4,1.22,1.22,0,0,1,.92,1.55.29.29,0,0,0,0,.13c0,.37-.07.51-.47.5-.78,0-1.56,0-2.33,0a18.61,18.61,0,0,0-2.8.07,3.63,3.63,0,0,0-3,3.86,3.69,3.69,0,0,0,3.65,3.39q2.1.06,4.2,0c.57,0,.74.1.73.71,0,4.58,0,9.16,0,13.74a5.41,5.41,0,0,0,4,5.43c.13.05.33,0,.39.19H121a10.25,10.25,0,0,0,1.36-.43,5.33,5.33,0,0,0,3.29-5.18q0-6.9,0-13.81c0-.51.11-.67.64-.65,1.29,0,2.58,0,3.87,0a3.75,3.75,0,0,0,3.91-2.6c0-.08,0-.17.16-.18v-1.6S134.09,107.34,134.08,107.31Zm-59.76,2c0,.31-.08.43-.41.43-1.47,0-2.93,0-4.4,0a1.62,1.62,0,1,1,.08-3.23h2.07c.73,0,1.47,0,2.2,0,.39,0,.49.12.48.49C74.31,107.72,74.31,108.5,74.32,109.28Zm50.62-8.62c-.22,0-.44,0-.67,0H87c-.73,0-1.33.1-1.53.93.22.91.47,1.09,1.52,1.09h35.38c1.36,0,1.36,0,1.25,1.36,0,.25,0,.49,0,.73v21.16c0,2.53-1.34,3.88-3.86,3.88H80.22c-2.51,0-3.86-1.34-3.86-3.88V104.77c0-.24,0-.48,0-.73-.11-1.36-.11-1.36,1.24-1.36h4.52c.85,0,1.14-.26,1.3-1.1a1.09,1.09,0,0,0-1.25-.92q-3.49,0-7,0a1.6,1.6,0,0,1-1.78-2A1.58,1.58,0,0,1,75,97.38h49.49c1.22,0,1.72.33,2,1.32A1.6,1.6,0,0,1,124.94,100.66Zm5.63,9c-1.51,0-3,0-4.54,0-.28,0-.39-.08-.39-.38,0-.82,0-1.64,0-2.46,0-.34.12-.42.43-.41.77,0,1.55,0,2.33,0s1.38,0,2.07,0a1.62,1.62,0,0,1,1.67,1.55A1.6,1.6,0,0,1,130.57,109.68Z"/><path class="cls-2" d="M123.57,104c0,.25,0,.49,0,.73v21.16c0,2.53-1.34,3.88-3.86,3.88H80.22c-2.51,0-3.86-1.34-3.86-3.88V104.77c0-.24,0-.48,0-.73Z"/><path class="cls-5" d="M73.43,98.69A1.58,1.58,0,0,1,75,97.38h49.49c1.22,0,1.72.32,2,1.31a5,5,0,0,1-2.56.54q-24,0-48,0A5.08,5.08,0,0,1,73.43,98.69Z"/><path class="cls-6" d="M73.43,98.69a5.08,5.08,0,0,0,2.55.54q24,0,48,0a5,5,0,0,0,2.56-.54,1.6,1.6,0,0,1-1.6,2c-.22,0-.44,0-.67,0H87c-.73,0-1.33.1-1.53.93h-2a1.09,1.09,0,0,0-1.25-.92q-3.49,0-7,0A1.6,1.6,0,0,1,73.43,98.69Z"/><path class="cls-3" d="M83.45,101.58h2c.22.91.47,1.09,1.52,1.09h35.38c1.36,0,1.36,0,1.25,1.36H76.39c-.11-1.36-.11-1.36,1.24-1.36h4.52C83,102.67,83.29,102.41,83.45,101.58Z"/><path class="cls-6" d="M71.66,106.46c.73,0,1.47,0,2.2,0,.39,0,.49.12.48.49,0,.78,0,1.56,0,2.34,0,.31-.08.43-.41.43-1.47,0-2.93,0-4.4,0a1.62,1.62,0,1,1,.08-3.23Z"/><path class="cls-6" d="M128.39,106.46c.69,0,1.38,0,2.07,0a1.62,1.62,0,0,1,1.67,1.55,1.6,1.6,0,0,1-1.56,1.67c-1.51,0-3,0-4.54,0-.28,0-.39-.08-.39-.38,0-.82,0-1.64,0-2.46,0-.34.12-.42.43-.41C126.83,106.47,127.61,106.46,128.39,106.46Z"/><path class="cls-4" d="M82.15,96.13a1.12,1.12,0,0,1-1.25,1c-1.93,0-3.86,0-5.79.07-.84,0-1.2-.4-1.18-1.24a5.88,5.88,0,0,1,5.77-5.76c4.1-.08,8.21-.12,12.32-.15.57,0,.78-.13.71-.73a11.09,11.09,0,0,1,0-1.73,2.3,2.3,0,0,1,2.34-2.31c2.89,0,5.77-.09,8.66-.11a2.31,2.31,0,0,1,2.43,2.36,11.12,11.12,0,0,1,0,1.73c-.06.57.2.62.67.62,4.1-.07,8.21-.13,12.31-.15a5.89,5.89,0,0,1,6,5.48c.07,1-.28,1.4-1.28,1.41l-9.39.11-29,.33c-.9,0-1.12-.14-1.39-1,.28-.83.49-1,1.41-1l36.15-.46c.42,0,1.07.24,1.21-.16s-.28-.89-.64-1.24a3.79,3.79,0,0,0-3.31-1.48l-8.19.1-30.82.37a3.69,3.69,0,0,0-3.11,1.52,2.85,2.85,0,0,0-.72,1.45l4.75-.06C81.66,95.13,81.89,95.31,82.15,96.13Zm22-8.69c0-.23-.3-.22-.56-.22-2.77,0-5.54.08-8.31.1-.39,0-.51.15-.49.52,0,.6,0,1.2,0,1.79,0,.27.06.37.33.36l8.7-.12c.21,0,.34,0,.34-.26C104.13,88.94,104.12,88.28,104.11,87.44Z"/><path class="cls-2" d="M122.22,93.23c.36.35.78.85.64,1.24s-.79.16-1.21.16l-36.15.46c-.92,0-1.13.16-1.41,1l-1.94,0c-.26-.82-.49-1-1.33-1l-4.75.06a2.85,2.85,0,0,1,.72-1.45c.13.13.28.09.44.09l11.48-.14,15.07-.19c4.53,0,9.07-.09,13.6-.15C119,93.32,120.61,93.38,122.22,93.23Z"/><path class="cls-3" d="M122.22,93.23c-1.61.15-3.22.09-4.84.12-4.53.06-9.07.1-13.6.15l-15.07.19-11.48.14c-.16,0-.31,0-.44-.09a3.69,3.69,0,0,1,3.11-1.52l30.82-.37,8.19-.1A3.79,3.79,0,0,1,122.22,93.23Z"/><path class="cls-6" d="M104.11,87.44c0,.84,0,1.5,0,2.17,0,.24-.13.26-.34.26L95.1,90c-.27,0-.33-.09-.33-.36,0-.59,0-1.19,0-1.79,0-.37.1-.51.49-.52,2.77,0,5.54-.07,8.31-.1C103.81,87.22,104.11,87.21,104.11,87.44Z"/></svg>