<svg id="Layer_1" data-name="Layer 1" xmlns="http://www.w3.org/2000/svg" viewBox="0 0 300 235"><defs><style>.cls-1{fill:#fad2b1;}.cls-2{fill:#fff;}.cls-3{fill:#030202;}.cls-4{fill:#f4de7f;}.cls-5{fill:#62ac34;}.cls-6{fill:#fdfdfd;}.cls-7{fill:#c0c9d3;}.cls-8{fill:#11120d;}</style></defs><title>purp icons</title><path class="cls-1" d="M164.51,52.52a4,4,0,0,0-.38,1.57c-.07,3.8-.1,7.59-.13,11.39,0,.34,0,.68.06,1.14,2.77-1.46,4.41-3.48,4.65-6.48.17-2.09.32-4.19.45-6.28a1.77,1.77,0,0,1,1.36-1.78c3.76-1.18,7.5-2.42,11.28-3.58a2.46,2.46,0,0,1,1.67.13q8.25,4.17,16.45,8.42c1.14.59,1.35,1.28.78,2.46-.43.9-1,1.75-1.35,2.67a3.12,3.12,0,0,1-2.24,1.91c-2.34.67-4.64,1.46-7,2.22-3.19,1-5,3.37-6.12,6.61.76-.23,1.34-.34,1.88-.57A16.55,16.55,0,0,1,196,71.58a35.87,35.87,0,0,0,15.57.23A15.34,15.34,0,0,0,218,68.9l16.28-31.69-8,5.21a3,3,0,0,1-2.29.51Q206.51,40.2,189,37.55a4,4,0,0,0-1.73.1Q178.65,40.38,170,43.2a2.4,2.4,0,0,0-1.27,1C167.3,47,165.9,49.74,164.51,52.52Z"/><path d="M170.82,33.92q-4.53,8.8-9,17.63a4.91,4.91,0,0,0-.49,2c-.09,5-.16,10-.15,15a2.46,2.46,0,0,0,.74,1.87,2.39,2.39,0,0,0,2-.34,36.74,36.74,0,0,0,5.06-3.68A9.17,9.17,0,0,0,171.6,60a28.9,28.9,0,0,1,.54-4.44c.16.33.34.67.48,1,1,2.34,2,4.69,3,7,.28.68.64,1.43,1.45,1.24a2.84,2.84,0,0,0,1.55-1.18c.79-1.28,1.42-2.66,2.1-4A12.13,12.13,0,0,0,182,52.28c-.1-.64-.06-1.26.8-.82,4.93,2.5,9.84,5,14.77,7.57A3.21,3.21,0,0,1,195,61.79c-2.1.54-4.17,1.26-6.21,2a11,11,0,0,0-6.2,5.38c-.94,1.76-1.82,3.54-2.75,5.31-.35.67-.56,1.44.09,1.9a2.43,2.43,0,0,0,1.81.28c2.2-.61,4.37-1.34,6.53-2.08a11.44,11.44,0,0,1,5.45-.46A81.76,81.76,0,0,0,204,75.41a28,28,0,0,0,11.54-1.86c.53-.21,1.05-.46,1.57-.72a15.54,15.54,0,0,0,7.39-8.21,4.61,4.61,0,0,1,3.24-2.79c8.12-2.55,16.23-5.15,24.35-7.74l.63-.21c.93-.38,1.35-1.11,1-1.9a1.38,1.38,0,0,0-1.91-.8L242,54.36c-5.79,1.87-11.58,3.73-17.35,5.65a2.91,2.91,0,0,0-1.41,1.21c-1,1.7-1.83,3.54-2.95,5.17A12,12,0,0,1,218,68.9a15.34,15.34,0,0,1-6.39,2.91A35.87,35.87,0,0,1,196,71.58a16.55,16.55,0,0,0-10.08.77c-.54.23-1.12.34-1.88.57,1.14-3.24,2.93-5.58,6.12-6.61,2.32-.76,4.62-1.55,7-2.22a3.12,3.12,0,0,0,2.24-1.91c.39-.92.92-1.77,1.35-2.67.57-1.18.36-1.87-.78-2.46q-8.21-4.23-16.45-8.42a2.46,2.46,0,0,0-1.67-.13c-3.78,1.16-7.52,2.4-11.28,3.58a1.77,1.77,0,0,0-1.36,1.78c-.13,2.09-.28,4.19-.45,6.28-.24,3-1.88,5-4.65,6.48,0-.46-.07-.8-.06-1.14,0-3.8.06-7.59.13-11.39a4,4,0,0,1,.38-1.57c1.39-2.78,2.79-5.54,4.26-8.27a2.4,2.4,0,0,1,1.27-1q8.61-2.84,17.25-5.55a4,4,0,0,1,1.73-.1q17.47,2.66,34.95,5.38a3,3,0,0,0,2.29-.51l8-5.21q5.42-3.52,10.81-7.07a2.71,2.71,0,0,0,1.1-1.4,1.45,1.45,0,0,0-.62-1.24,2,2,0,0,0-1.62.08c-2.12,1.27-4.17,2.65-6.24,4l-.81.53c-3.87,2.51-7.73,5-11.62,7.54a2.45,2.45,0,0,1-1.53.3c-11.66-1.76-23.34-3.44-35-5.42-4-.67-7.82-2.09-11.72-3.21C174,30.45,172.22,31.17,170.82,33.92Zm3,.6a1.73,1.73,0,0,1,1.47-.65c2.45.59,4.87,1.32,7.3,2v.2l-11.32,3.5c0,.06,0,0,0-.06C172.07,37.83,172.87,36.13,173.81,34.52Zm.86,19.59,4.43-1.59c.53,2.73-.38,5.08-1.89,7.57Z"/><path class="cls-1" d="M171.23,39.51s.05.12,0,.06l11.32-3.5v-.2c-2.43-.68-4.85-1.41-7.3-2a1.73,1.73,0,0,0-1.47.65C172.87,36.13,172.07,37.83,171.23,39.51Z"/><path d="M165,92.14c-.34.54-.69,1.07-1,1.61-2.65,4.31-5.25,8.66-8,12.93-2.34,3.68-4.81,7.29-7.23,10.92a1.68,1.68,0,0,1-2.18.61,1.61,1.61,0,0,1-.67-2.14c.9-1.95,1.82-3.89,2.78-5.81,2-3.94,3.94-7.88,6-11.79,1.54-3,3.15-6,4.73-9,.08-.15.14-.31.21-.46l-.12-.08a1.73,1.73,0,0,0-.25.3c-2.32,3.76-4.6,7.55-7,11.29-1.88,3-3.85,6-5.79,8.91-1,1.52-2,3-3,4.54a4.18,4.18,0,0,1-.73.89,1.56,1.56,0,0,1-2,0,1.66,1.66,0,0,1-.4-2c1.16-2.41,2.28-4.85,3.5-7.23,3-5.82,6-11.61,9-17.41.33-.63.67-1.26,1-1.89.08-.15.14-.31.22-.47l-.18-.13a5.19,5.19,0,0,0-.36.46c-1.6,2.79-3.15,5.6-4.8,8.36-3.42,5.71-6.89,11.4-10.35,17.09a1.54,1.54,0,0,1-2.14.62,1.64,1.64,0,0,1-.67-2.18c1.47-3.32,2.9-6.66,4.43-10s3.25-6.78,4.89-10.17c1.34-2.75,2.64-5.53,4.05-8.25a26.5,26.5,0,0,1,4.89-6.94,9.47,9.47,0,0,1,6.59-2.76c.93,0,1.87,0,2.8.07a9,9,0,0,0,1,0,2.47,2.47,0,0,0,2.08-1.24c1-1.76,2.15-3.5,3.16-5.28,1.47-2.61,2.92-5.22,4.31-7.87,2.76-5.22,5.51-10.45,8.21-15.71,2.46-4.8,4.86-9.63,7.26-14.46,2.53-5.1,5-10.21,7.54-15.31a13.8,13.8,0,0,1,3.39-4.63A5.54,5.54,0,0,1,206.84,7a5.33,5.33,0,0,1,2.18,4.8,12,12,0,0,1-2.4,6.23l-6.68,10.23c-2.21,3.38-4.43,6.75-6.62,10.14q-2.81,4.32-5.54,8.68Q182,56.43,176.23,65.82c-1.45,2.38-2.78,4.83-4.16,7.26-.12.22-.19.48-.32.7a2.84,2.84,0,0,0,.36,3.33,16,16,0,0,1,2.35,4.45,10.34,10.34,0,0,1-.31,6.48,35.09,35.09,0,0,1-4.39,8.6c-2,2.9-3.83,5.91-5.79,8.84s-3.77,5.55-5.7,8.3c-1.48,2.12-3,4.19-4.55,6.28a3.67,3.67,0,0,1-.57.67,1.6,1.6,0,0,1-2,0,1.62,1.62,0,0,1-.42-2c.69-1.36,1.36-2.73,2.1-4.06q5.88-10.59,11.79-21.16c.23-.41.43-.83.64-1.24Zm-8.34,19.91.13.08c1.72-2.52,3.47-5,5.16-7.58,2-3,3.9-6.09,5.93-9.08a36.76,36.76,0,0,0,4-7.63,8.54,8.54,0,0,0-.95-8.51,14.15,14.15,0,0,1-1.33-2.2,4,4,0,0,1-.33-3.1,12.47,12.47,0,0,1,.88-2c1.73-3,3.46-6.09,5.27-9.09q4.25-7.05,8.59-14c2.44-3.92,5-7.81,7.45-11.7q3.15-4.91,6.35-9.79c2.44-3.73,4.9-7.45,7.34-11.18a8.83,8.83,0,0,0,1.53-3.56,6.22,6.22,0,0,0,0-2c-.46-2.19-2.3-2.77-4.2-1.82a6.7,6.7,0,0,0-2.9,3c-1.18,2.24-2.28,4.52-3.41,6.79-2.06,4.15-4.11,8.32-6.19,12.47-2.72,5.43-5.4,10.88-8.21,16.27-3.46,6.62-7,13.18-10.56,19.75-.93,1.73-2,3.37-3.05,5a3.84,3.84,0,0,1-2.8,2,19.1,19.1,0,0,1-3.38.1,8.33,8.33,0,0,0-7.54,3.13,35.53,35.53,0,0,0-4.31,7c-2.42,5-4.92,10-7.36,15-.54,1.09-1,2.22-1.49,3.32a1.57,1.57,0,0,0,.42-.51c1.05-1.74,2.12-3.47,3.14-5.23q3.47-6,6.9-12a2.37,2.37,0,0,1,1.46-1.24,2.27,2.27,0,0,1,2.52.78,2.3,2.3,0,0,1,.27,2.63q-1.14,2.19-2.3,4.38-2.73,5.13-5.45,10.26c-.64,1.22-1.22,2.47-1.83,3.71a11.66,11.66,0,0,0,1.23-1.68c1.48-2.34,3-4.67,4.44-7,1.8-2.92,3.54-5.87,5.36-8.78a2.78,2.78,0,0,1,1.28-1,2.15,2.15,0,0,1,2.54.68,2.22,2.22,0,0,1,.33,2.61c-.63,1.23-1.3,2.43-1.94,3.65l-7.32,14c-.12.24-.21.49-.32.74,1.77-2.57,3.44-5.19,5.07-7.82,2-3.25,4-6.52,6-9.77a2.38,2.38,0,0,1,4,2.53c-2.31,4-4.64,8.09-6.94,12.14C159,107.8,157.83,109.93,156.66,112.05Z"/><path class="cls-2" d="M156.66,112.05c1.17-2.12,2.3-4.25,3.49-6.35,2.3-4,4.63-8.09,6.94-12.14a2.38,2.38,0,0,0-4-2.53c-2,3.25-4,6.52-6,9.77-1.63,2.63-3.3,5.25-5.07,7.82.11-.25.2-.5.32-.74l7.32-14c.64-1.22,1.31-2.42,1.94-3.65a2.22,2.22,0,0,0-.33-2.61,2.15,2.15,0,0,0-2.54-.68,2.78,2.78,0,0,0-1.28,1c-1.82,2.91-3.56,5.86-5.36,8.78-1.46,2.36-3,4.69-4.44,7a11.66,11.66,0,0,1-1.23,1.68c.61-1.24,1.19-2.49,1.83-3.71q2.72-5.13,5.45-10.26,1.16-2.19,2.3-4.38a2.3,2.3,0,0,0-.27-2.63,2.27,2.27,0,0,0-2.52-.78,2.37,2.37,0,0,0-1.46,1.24q-3.45,6-6.9,12c-1,1.76-2.09,3.49-3.14,5.23a1.57,1.57,0,0,1-.42.51c.49-1.1.95-2.23,1.49-3.32,2.44-5,4.94-10,7.36-15a35.53,35.53,0,0,1,4.31-7A8.33,8.33,0,0,1,162,74.26a19.1,19.1,0,0,0,3.38-.1,3.84,3.84,0,0,0,2.8-2c1-1.67,2.12-3.31,3.05-5,3.55-6.57,7.1-13.13,10.56-19.75,2.81-5.39,5.49-10.84,8.21-16.27,2.08-4.15,4.13-8.32,6.19-12.47,1.13-2.27,2.23-4.55,3.41-6.79a6.7,6.7,0,0,1,2.9-3c1.9-1,3.74-.37,4.2,1.82a6.22,6.22,0,0,1,0,2,8.83,8.83,0,0,1-1.53,3.56c-2.44,3.73-4.9,7.45-7.34,11.18q-3.19,4.89-6.35,9.79c-2.5,3.89-5,7.78-7.45,11.7q-4.35,7-8.59,14c-1.81,3-3.54,6-5.27,9.09a12.47,12.47,0,0,0-.88,2,4,4,0,0,0,.33,3.1,14.15,14.15,0,0,0,1.33,2.2,8.54,8.54,0,0,1,.95,8.51,36.76,36.76,0,0,1-4,7.63c-2,3-3.93,6.06-5.93,9.08-1.69,2.54-3.44,5.06-5.16,7.58Z"/><path class="cls-3" d="M154.14,97.88c1.86-1.71,2.94-1.79,5-.3a22.2,22.2,0,0,1,7.26,8.67,1.44,1.44,0,0,0,1.86,1,22.86,22.86,0,0,1,25.45,15.07,1.83,1.83,0,0,0,2.1,1.52q9.72-.1,19.45,0a10.41,10.41,0,0,1,6,18.84c-.77.54-1.7.85-2.49,1.36-.58.37-1.72-.07-1.75,1.06a26.54,26.54,0,0,0,.11,4.37c0,.46.9.23,1.39.23,3.87,0,7.75,0,11.63,0,5.88,0,9.33,2.59,11,8.22,0,.09.19.14.28.2v4.58c-.3,0-.36.28-.45.52-1.92,5.18-5.75,7.48-11.16,7.43-3.69,0-7.37.08-11.05,0-1.53-.05-1.85.42-1.84,1.88q.08,19.71,0,39.43c0,6.87-3.16,11.87-9.42,14.79a29.89,29.89,0,0,1-3.86,1.23H83.14c-.2-.56-.75-.4-1.13-.52-7.18-2.24-11.38-7.9-11.4-15.51,0-13.09,0-26.18,0-39.27,0-1.73-.46-2.08-2.08-2q-6,.18-12,0a10.52,10.52,0,0,1-10.41-9.69,10.33,10.33,0,0,1,8.47-11,51.84,51.84,0,0,1,8-.2c2.22,0,4.45-.07,6.67,0,1.12,0,1.49-.36,1.33-1.41a1.21,1.21,0,0,1,0-.38c.24-2.13,0-3.5-2.61-4.42-4.49-1.62-6.75-6.7-5.78-11.43a10.4,10.4,0,0,1,10.09-8.25q11.34-.12,22.69,0a2.39,2.39,0,0,0,2.77-1.9A22.87,22.87,0,0,1,122.9,107.2c1.22.21,1.62-.15,2.14-1.13,4.18-7.95,10.79-12.23,19.76-12.79,2.48-.15,3.2.5,3.81,3A3.26,3.26,0,0,1,145.25,99a17.23,17.23,0,0,0-16.11,12.1c-.89,2.53-2,3.13-4.67,2.32a16.72,16.72,0,0,0-9.22-.28,16.94,16.94,0,0,0-12,10.51H188c-3-8.29-12.18-12.79-20.85-10.31-3.13.9-4,.44-5.08-2.7a16.74,16.74,0,0,0-6.3-8.39C154.14,101.13,153.42,99.8,154.14,97.88ZM96.57,141.57c-.44,2.38-1.27,3.11-3.7,3.12-4.3,0-8.61,0-12.91,0-3.85,0-3.85,0-3.53,3.89,0,.7-.09,1.4-.09,2.09v60.43c0,7.23,3.83,11.09,11,11.09H200.22c7.19,0,11-3.86,11-11.09q0-30.21,0-60.43c0-.69-.05-1.39-.08-2.09.31-3.89.31-3.89-3.56-3.89h-101c-3,0-3.71-.51-4.35-3.12.57-2.37,2.29-2.65,4.38-2.65q53.3,0,106.59,0c.63,0,1.27,0,1.9,0,3.22-.19,5-2.38,4.57-5.64-.84-2.82-2.25-3.75-5.76-3.75H73.7c-.38,0-.77,0-1.15,0-2.47.12-3.87,1.27-4.6,3.74-.44,3.49,1.45,5.62,5.1,5.64q10,0,20,0C94.91,138.93,96.17,139.63,96.57,141.57ZM62.9,155.49c-2,0-3.94,0-5.91,0-3,0-5,1.92-5,4.59a4.61,4.61,0,0,0,4.79,4.64c4.19.1,8.39,0,12.58.05.94,0,1.18-.35,1.17-1.23,0-2.22,0-4.45,0-6.67,0-1.05-.24-1.46-1.36-1.41C67.1,155.55,65,155.48,62.9,155.49Zm162,0c-2.23,0-4.45,0-6.68,0-.88,0-1.24.21-1.21,1.16.07,2.35.07,4.7,0,7.05,0,.85.31,1.09,1.11,1.08,4.32,0,8.65.07,13-.08a4.53,4.53,0,0,0,4.46-4.74,4.62,4.62,0,0,0-4.77-4.44C228.87,155.45,226.9,155.49,224.93,155.48Z"/><path class="cls-4" d="M154.14,97.88c-.72,1.92,0,3.25,1.62,4.37a16.74,16.74,0,0,1,6.3,8.39c1.12,3.14,1.95,3.6,5.08,2.7,8.67-2.48,17.88,2,20.85,10.31H103.24a16.94,16.94,0,0,1,12-10.51,16.72,16.72,0,0,1,9.22.28c2.64.81,3.78.21,4.67-2.32A17.23,17.23,0,0,1,145.25,99a3.26,3.26,0,0,0,3.36-2.74A18.34,18.34,0,0,1,154.14,97.88Z"/><path class="cls-5" d="M211.16,148.59c0,.7.08,1.4.08,2.09q0,30.23,0,60.43c0,7.23-3.84,11.09-11,11.09H87.36c-7.19,0-11-3.86-11-11.09V150.68c0-.69.06-1.39.09-2.09Z"/><path class="cls-6" d="M68,133.3c.73-2.47,2.13-3.62,4.6-3.74.38,0,.77,0,1.15,0H213.88c3.51,0,4.92.93,5.76,3.75a14.28,14.28,0,0,1-7.31,1.54q-68.54-.06-137.07,0A14.25,14.25,0,0,1,68,133.3Z"/><path class="cls-7" d="M68,133.3a14.25,14.25,0,0,0,7.31,1.54q68.54-.06,137.07,0a14.28,14.28,0,0,0,7.31-1.54c.41,3.26-1.35,5.45-4.57,5.64-.63,0-1.27,0-1.9,0q-53.29,0-106.59,0c-2.09,0-3.81.28-4.38,2.65H96.57c-.4-1.94-1.66-2.64-3.57-2.63q-10,0-20,0C69.4,138.92,67.51,136.79,68,133.3Z"/><path class="cls-8" d="M96.57,141.57h5.63c.64,2.61,1.35,3.12,4.35,3.12H207.6c3.87,0,3.87,0,3.56,3.89H76.43c-.32-3.89-.32-3.89,3.53-3.89,4.3,0,8.61,0,12.91,0C95.3,144.68,96.13,144,96.57,141.57Z"/><path class="cls-7" d="M62.9,155.48c2.1,0,4.2.07,6.29,0,1.12-.05,1.4.36,1.36,1.41-.08,2.22-.08,4.45,0,6.67,0,.88-.23,1.24-1.17,1.23-4.19,0-8.39,0-12.58-.05A4.61,4.61,0,0,1,52,160.08c0-2.67,2.06-4.55,5-4.59C59,155.46,60.93,155.49,62.9,155.48Z"/><path class="cls-7" d="M224.93,155.49c2,0,3.94,0,5.91,0a4.62,4.62,0,0,1,4.77,4.44,4.53,4.53,0,0,1-4.46,4.74c-4.31.15-8.64,0-13,.08-.8,0-1.12-.23-1.11-1.08,0-2.35,0-4.7,0-7.05,0-.95.33-1.18,1.21-1.16C220.48,155.52,222.7,155.48,224.93,155.49Z"/></svg>